#!OML:ASF H:\Martial Arts Walks\Project 1\Capture day 1\Session 1\male.ASF
:FULLY-SPECIFIED
:DEGREES
1147
root -6.07603 10.58 31.0216 -145.472 83.5062 -150.848
lowerback 20.7625 7.48378 2.39314
upperback -2.62342 10.4501 -1.13445
thorax -13.9089 4.53386 -5.93373
lowerneck -1.36307 13.0172 3.86228
upperneck 7.444 17.6401 -3.19715
head 3.33122 8.79384 -0.99704
rclavicle 2.59274e-014 -2.2239e-014
rhumerus 9.95859 62.7726 -59.3718
rradius 108.439
rwrist 8.93668
rhand -16.4329 -28.6261
rfingers 7.12502
rthumb 9.78255 -58.3789
lclavicle 2.59274e-014 -2.2239e-014
lhumerus -10.2596 9.71395 65.74
lradius 113.186
lwrist 39.0043
lhand -31.9225 21.2906
lfingers 7.12502
lthumb -5.17393 51.2075
rfemur -54.1667 -35.3871 -0.915297
rtibia 105.676
rfoot -39.0523 -6.6422
rtoes -35.1843
lfemur -67.9938 33.3814 4.29382
ltibia 103.792
lfoot -37.3797 -3.78485
ltoes -26.9508
1148
root -6.08023 10.5765 31.0236 -145.406 83.4578 -150.759
lowerback 20.8019 7.45301 2.39709
upperback -2.61566 10.4202 -1.06354
thorax -13.9394 4.52087 -5.85419
lowerneck -1.33024 13.0431 3.78763
upperneck 7.41992 17.6781 -3.20475
head 3.31139 8.8113 -0.990168
rclavicle -4.05101e-015 3.72721e-015
rhumerus 10.0908 62.876 -59.0892
rradius 108.492
rwrist 8.88395
rhand -16.7184 -28.4719
rfingers 7.12502
rthumb 9.50706 -58.2374
lclavicle -4.05101e-015 3.72721e-015
lhumerus -10.3124 9.75944 65.7856
lradius 113.192
lwrist 39.123
lhand -31.8667 21.2298
lfingers 7.12502
lthumb -5.12002 51.1479
rfemur -54.155 -35.4134 -0.893177
rtibia 105.709
rfoot -39.0743 -6.56019
rtoes -35.0859
lfemur -68.0334 33.3775 4.31711
ltibia 103.807
lfoot -37.4133 -3.6159
ltoes -27.2395
1149
root -6.08403 10.5734 31.026 -145.39 83.4316 -150.728
lowerback 20.7218 7.47949 2.26931
upperback -2.55729 10.4382 -0.91976
thorax -13.8755 4.55164 -5.61338
lowerneck -1.30201 13.0385 3.71624
upperneck 7.37028 17.6826 -3.32559
head 3.29529 8.80906 -1.02051
rclavicle -3.09234e-014 -1.03865e-014
rhumerus 10.2967 62.9472 -58.6177
rradius 108.557
rwrist 8.87089
rhand -16.674 -28.7248
rfingers 7.12502
rthumb 9.54991 -58.4884
lclavicle -3.09234e-014 -1.03865e-014
lhumerus -10.3167 9.7995 66.0174
lradius 113.187
lwrist 39.1967
lhand -31.8988 21.1545
lfingers 7.12502
lthumb -5.15101 51.0719
rfemur -54.1588 -35.4319 -0.875337
rtibia 105.741
rfoot -39.0759 -6.64126
rtoes -35.2065
lfemur -68.0643 33.4112 4.34897
ltibia 103.815
lfoot -37.4137 -3.81536
ltoes -27.0907
1150
root -6.08828 10.5681 31.029 -145.532 83.4043 -150.879
lowerback 20.7395 7.46518 2.30376
upperback -2.55971 10.428 -0.922998
thorax -13.8825 4.54348 -5.63531
lowerneck -1.29889 13.0248 3.72438
upperneck 7.33461 17.6598 -3.31079
head 3.28057 8.79845 -1.0201
rclavicle 4.97334e-014 3.18055e-015
rhumerus 10.2196 62.9528 -58.5634
rradius 108.626
rwrist 8.88102
rhand -16.7958 -28.7516
rfingers 7.12502
rthumb 9.43237 -58.5205
lclavicle 4.97334e-014 3.18055e-015
lhumerus -10.2919 9.73712 65.9966
lradius 113.183
lwrist 39.3969
lhand -32.059 21.3864
lfingers 7.12502
lthumb -5.3057 51.3
rfemur -54.2015 -35.4717 -0.867973
rtibia 105.791
rfoot -39.0882 -6.59978
rtoes -35.1664
lfemur -68.1683 33.5047 4.28966
ltibia 103.84
lfoot -37.4533 -3.65588
ltoes -27.3416
1151
root -6.09259 10.5648 31.0322 -145.681 83.3664 -151.036
lowerback 20.7524 7.45587 2.31587
upperback -2.55587 10.4211 -0.906405
thorax -13.8874 4.53976 -5.62302
lowerneck -1.29732 13.0051 3.71823
upperneck 7.29075 17.6312 -3.32121
head 3.26441 8.7839 -1.02581
rclavicle -7.74453e-014 1.89342e-014
rhumerus 10.2093 62.9435 -58.4496
rradius 108.692
rwrist 8.85971
rhand -16.8236 -28.8046
rfingers 7.12502
rthumb 9.40553 -58.5747
lclavicle -7.74453e-014 1.89342e-014
lhumerus -10.2589 9.7025 66.0438
lradius 113.158
lwrist 39.4525
lhand -32.2608 21.4167
lfingers 7.12502
lthumb -5.50051 51.3253
rfemur -54.2368 -35.5123 -0.850061
rtibia 105.835
rfoot -39.0958 -6.59833
rtoes -35.153
lfemur -68.2358 33.4599 4.27556
ltibia 103.854
lfoot -37.4585 -3.49973
ltoes -27.5454
1152
root -6.09654 10.561 31.0347 -145.906 83.3344 -151.229
lowerback 20.8225 7.41226 2.38416
upperback -2.54729 10.3803 -0.917275
thorax -13.9069 4.51344 -5.66947
lowerneck -1.28115 13.0123 3.71093
upperneck 7.23909 17.6368 -3.30797
head 3.2415 8.78717 -1.02379
rclavicle -1.93517e-013 2.5345e-015
rhumerus 10.2183 62.9699 -58.3878
rradius 108.763
rwrist 8.80018
rhand -16.8421 -28.749
rfingers 7.12502
rthumb 9.38773 -58.52
lclavicle -1.93517e-013 2.5345e-015
lhumerus -10.2563 9.64576 66.054
lradius 113.175
lwrist 39.5255
lhand -32.3371 21.668
lfingers 7.12502
lthumb -5.5742 51.5747
rfemur -54.2172 -35.5455 -0.866063
rtibia 105.882
rfoot -39.0998 -6.66672
rtoes -35.2144
lfemur -68.2863 33.5492 4.25893
ltibia 103.865
lfoot -37.4779 -3.75789
ltoes -27.4367
1153
root -6.10035 10.5567 31.0376 -145.993 83.293 -151.304
lowerback 20.8752 7.3857 2.42338
upperback -2.55007 10.3578 -0.906133
thorax -13.938 4.49805 -5.68007
lowerneck -1.26517 13.004 3.77783
upperneck 7.20413 17.627 -3.37468
head 3.24054 8.78229 -1.05659
rclavicle -1.59295e-013 -2.28105e-014
rhumerus 10.1869 62.9967 -58.3392
rradius 108.815
rwrist 8.72686
rhand -16.8516 -28.7106
rfingers 7.12502
rthumb 9.3785 -58.4819
lclavicle -1.59295e-013 -2.28105e-014
lhumerus -10.2477 9.60367 66.0507
lradius 113.167
lwrist 39.5266
lhand -32.3934 21.5742
lfingers 7.12502
lthumb -5.62857 51.4794
rfemur -54.2309 -35.5664 -0.855074
rtibia 105.926
rfoot -39.1003 -6.66038
rtoes -35.1739
lfemur -68.3647 33.5917 4.23848
ltibia 103.883
lfoot -37.4714 -3.70831
ltoes -27.5452
1154
root -6.10483 10.5546 31.0412 -146.34 83.2607 -151.656
lowerback 20.9167 7.38182 2.40793
upperback -2.55552 10.352 -0.8899
thorax -13.9753 4.4944 -5.65948
lowerneck -1.26294 12.9955 3.76444
upperneck 7.19635 17.6146 -3.36574
head 3.23453 8.7762 -1.05311
rclavicle -8.5465e-014 3.54334e-014
rhumerus 10.0723 62.9531 -58.3317
rradius 108.877
rwrist 8.77845
rhand -16.5447 -28.5433
rfingers 7.12502
rthumb 9.67469 -58.3011
lclavicle -8.5465e-014 3.54334e-014
lhumerus -10.2232 9.54169 66.0948
lradius 113.141
lwrist 39.4676
lhand -32.1627 21.5375
lfingers 7.12502
lthumb -5.40582 51.4486
rfemur -54.2537 -35.584 -0.874893
rtibia 105.967
rfoot -39.1079 -6.5653
rtoes -35.0758
lfemur -68.4367 33.5632 4.20046
ltibia 103.883
lfoot -37.4305 -3.8533
ltoes -27.3547
1155
root -6.10882 10.5527 31.0434 -146.347 83.2024 -151.656
lowerback 20.991 7.37074 2.49789
upperback -2.57382 10.3624 -0.893568
thorax -14.0222 4.48791 -5.72834
lowerneck -1.25505 12.9641 3.82361
upperneck 7.1822 17.5724 -3.39898
head 3.23636 8.75593 -1.07497
rclavicle -7.74142e-014 1.06847e-014
rhumerus 9.88389 62.9454 -58.3897
rradius 108.926
rwrist 8.63584
rhand -16.7855 -28.6239
rfingers 7.12502
rthumb 9.44234 -58.3924
lclavicle -7.74142e-014 1.06847e-014
lhumerus -10.181 9.43688 66.1115
lradius 113.098
lwrist 39.399
lhand -32.0117 21.5236
lfingers 7.12502
lthumb -5.25999 51.4384
rfemur -54.2596 -35.5857 -0.828824
rtibia 105.993
rfoot -39.088 -6.70578
rtoes -35.1368
lfemur -68.499 33.4986 4.23202
ltibia 103.885
lfoot -37.3868 -3.94197
ltoes -27.3103
1156
root -6.11279 10.5522 31.0467 -146.514 83.1463 -151.844
lowerback 21.0338 7.37496 2.52988
upperback -2.59069 10.3793 -0.883451
thorax -14.0618 4.49034 -5.74794
lowerneck -1.31902 12.9406 3.81878
upperneck 7.2478 17.5404 -3.37022
head 3.26573 8.7395 -1.0599
rclavicle -1.45113e-014 -1.11319e-014
rhumerus 9.68232 62.8714 -58.4291
rradius 109
rwrist 8.67439
rhand -16.5039 -28.5822
rfingers 7.12502
rthumb 9.71398 -58.3382
lclavicle -1.45113e-014 -1.11319e-014
lhumerus -10.1412 9.32296 66.1712
lradius 113.053
lwrist 39.3069
lhand -31.9275 21.3697
lfingers 7.12502
lthumb -5.17874 51.2864
rfemur -54.286 -35.5993 -0.785485
rtibia 106.013
rfoot -39.0545 -6.85755
rtoes -35.2766
lfemur -68.5771 33.4058 4.21774
ltibia 103.874
lfoot -37.3675 -3.8007
ltoes -27.4509
